<?xml version="1.0" encoding="UTF-8" standalone="no"?>
<svg xmlns="http://www.w3.org/2000/svg" xmlns:xlink="http://www.w3.org/1999/xlink" width="224.44334" height="60.186737" viewBox="0 0 224.44334 60.186738" version="1.1">
  <defs>
    <radialGradient id="a" gradientUnits="userSpaceOnUse" cy="442.72311" cx="-122.3936" gradientTransform="matrix(1,0,0,-1,134.4463,453.7334)" r="29.5804">
      <stop stop-color="#fff" offset="0"/>
      <stop stop-color="#007808" offset="1"/>
    </radialGradient>
  </defs>
  <g>
    <polygon points="0.511 12.364 0.511 5.078 5.402 6.763 5.402 13.541" fill="#0b4819"/>
    <polygon points="4.455 42.317 4.455 15.226 9.13 16.215 9.13 41.393" fill="#0b4819"/>
    <polygon points="27.321 5.066 15.306 18.846 15.306 24.71 33.126 4.617 61.351 2.432 19.834 45.706 25.361 45.997 55.516 15.154 55.516 44.305 52.166 47.454 60.662 47.913 60.662 55.981 34.012 53.917 47.597 40.738 47.597 34.243 28.175 53.465 4.919 51.667 42.222 11.55 36.083 11.882 9.13 41.393 9.13 16.215 11.683 13.201 5.402 13.541 5.402 6.763" fill="#105c80"/>
    <polygon points="4.455 15.226 7.159 11.971 11.683 13.201 9.13 16.215" fill="#0b4819"/>
    <polygon points="11.004 18.039 15.306 18.846 15.306 24.71 11.004 24.358" fill="#084010"/>
    <polygon points="15.82 47.006 19.834 45.706 25.361 45.997 21.714 47.346" fill="#0c541e"/>
    <polygon points="23.808 3.106 27.321 5.066 15.306 18.846 11.004 18.039" fill="#1a5c34"/>
    <polygon points="11.004 24.358 30.022 2.58 33.126 4.617 15.306 24.71" fill="#0b4819"/>
    <polygon points="33.195 10.432 36.083 11.882 9.13 41.393 4.455 42.317" fill="#1a5c34"/>
    <polygon points="0 53.344 39.798 10.042 42.222 11.55 4.919 51.667" fill="#0b4819"/>
    <polygon points="45.597 34.677 47.597 34.243 28.175 53.465 24.721 55.437" fill="#1a5c34"/>
    <polygon points="45.597 41.737 45.597 34.677 47.597 34.243 47.597 40.738" fill="#0b4819"/>
    <polygon points="30.973 55.965 45.597 41.737 47.597 40.738 34.012 53.917" fill="#0b4819"/>
    <polygon points="54.168 45.648 50.538 49.059 52.166 47.454 55.516 44.305" fill="#13802d"/>
    <polygon points="21.714 47.346 54.168 13.9 55.516 15.154 25.361 45.997" fill="#0b4819"/>
    <polygon points="54.168 13.9 55.516 15.154 55.516 44.305 54.168 45.648" fill="#084010"/>
    <polygon points="59.759 49.604 60.662 47.913 60.662 55.981 59.759 58.403" fill="#084010"/>
    <polygon points="60.507 0 61.351 2.432 19.834 45.706 15.82 47.006" fill="#1a5c34"/>
    <polygon points="23.808 3.106 11.004 18.039 11.004 24.358 30.022 2.58 60.507 0 15.82 47.006 21.714 47.346 54.168 13.9 54.168 45.648 50.538 49.059 59.759 49.604 59.759 58.403 30.973 55.965 45.597 41.737 45.597 34.677 24.721 55.437 0 53.344 39.798 10.042 33.195 10.432 4.455 42.317 4.455 15.226 7.159 11.971 0.511 12.364 0.511 5.078" fill="url(#a)"/>
  </g>
  <g transform="matrix(2.6160433,0,0,2.6160433,70,-145)">
    <polygon points="2.907 66.777 6.825 66.777 6.825 69.229 2.907 69.229 2.907 74.687 0.797 74.687 0.797 74.688 0.797 61.504 8.218 61.504 8.218 63.965 2.907 63.965"/>
    <polygon points="11.13 66.777 15.049 66.777 15.049 69.229 11.13 69.229 11.13 74.687 9.021 74.687 9.021 74.688 9.021 61.504 16.442 61.504 16.442 63.965 11.13 63.965"/>
    <path d="m19.69 69.063v5.625h-2.461v-8.534l2.461-0.264v0.782c0.551-0.517 1.254-0.773 2.109-0.773 1.113 0 1.963 0.337 2.549 1.011 0.645-0.674 1.611-1.011 2.9-1.011 1.113 0 1.963 0.337 2.549 1.011 0.586 0.675 0.879 1.45 0.879 2.329v5.449h-2.461v-4.834c0-0.586-0.132-1.04-0.396-1.362-0.264-0.321-0.691-0.491-1.283-0.51-0.486 0.035-0.908 0.357-1.266 0.967-0.029 0.183-0.044 0.366-0.044 0.555v5.186h-2.461v-4.834c0-0.586-0.132-1.04-0.396-1.362-0.264-0.321-0.689-0.492-1.281-0.511-0.539 0.034-1.005 0.394-1.398 1.08z"/>
    <path d="m31.913 78.379v-12.225l2.461-0.264v0.703c0.656-0.47 1.301-0.703 1.934-0.703 1.348 0 2.417 0.438 3.208 1.317 0.791 0.88 1.187 1.904 1.187 3.076s-0.396 2.197-1.187 3.076-1.86 1.318-3.208 1.318c-0.879-0.06-1.523-0.296-1.934-0.712v4.421l-2.461-0.007zm2.461-8.885v1.425c0.117 0.983 0.732 1.562 1.846 1.73 1.406-0.111 2.197-0.841 2.373-2.188-0.059-1.642-0.85-2.49-2.373-2.55-1.114 0.176-1.729 0.704-1.846 1.583z"/>
    <path d="m41.094 70.293c0-1.289 0.41-2.345 1.23-3.164 0.82-0.82 1.875-1.23 3.164-1.23s2.314 0.41 3.076 1.23c0.762 0.819 1.143 1.875 1.143 3.164v0.879h-6.064c0.059 0.469 0.264 0.835 0.615 1.099s0.762 0.396 1.23 0.396c0.82 0 1.553-0.233 2.197-0.702l1.406 1.405c-0.645 0.879-1.846 1.318-3.604 1.318-1.289 0-2.344-0.41-3.164-1.23s-1.229-1.875-1.229-3.165zm5.625-1.977c-0.352-0.264-0.762-0.396-1.23-0.396s-0.879 0.132-1.23 0.396-0.527 0.63-0.527 1.099h3.516c-0.002-0.469-0.178-0.835-0.529-1.099z"/>
    <path d="m59.037 66.163v7.822c0 1.23-0.366 2.259-1.099 3.085s-1.655 1.263-2.769 1.311l-0.527 0.053c-1.699-0.035-3.018-0.521-3.955-1.459l1.143-1.318c0.645 0.47 1.427 0.732 2.347 0.791 0.938 0 1.572-0.22 1.902-0.659 0.332-0.438 0.497-0.923 0.497-1.449v-0.439c-0.656 0.527-1.418 0.791-2.285 0.791-1.348 0-2.358-0.396-3.032-1.187s-1.011-1.86-1.011-3.208c0-1.289 0.366-2.345 1.099-3.164 0.733-0.82 1.772-1.23 3.12-1.23 0.996 0.06 1.699 0.325 2.109 0.8v-0.8l2.461 0.26zm-2.461 4.921v-1.424c-0.117-0.983-0.732-1.562-1.846-1.73-1.465 0.053-2.256 0.782-2.373 2.188 0.059 1.642 0.85 2.49 2.373 2.55 1.114-0.177 1.729-0.705 1.846-1.584z"/>
  </g>
</svg>
